<?xml version="1.0" standalone="no"?>
<svg
  width="600"
  height="600"
  viewBox="0 0 600 600"
  xmlns="http://www.w3.org/2000/svg"
>
  <g transform="translate(300,300)">
    <path d="M137.3,-137.9C184.5,-123.9,234.1,-87,252.9,-36.3C271.6,14.3,259.7,78.7,220.3,108.8C181,138.9,114.3,134.7,60.5,145.2C6.7,155.7,-34.1,180.7,-64,171.6C-93.8,162.5,-112.7,119.3,-139.1,78.1C-165.6,36.9,-199.5,-2.1,-196.9,-37.9C-194.4,-73.7,-155.4,-106.2,-116.5,-121.6C-77.6,-137.1,-38.8,-135.6,3.1,-139.3C45,-143,90,-151.9,137.3,-137.9Z" fill="#1baaa0" />
  </g>
</svg>
    