<?xml version="1.0" encoding="iso-8859-1"?>
<!-- Generator: Adobe Illustrator 19.0.0, SVG Export Plug-In . SVG Version: 6.00 Build 0)  -->
<svg version="1.1" id="Capa_1" xmlns="http://www.w3.org/2000/svg" xmlns:xlink="http://www.w3.org/1999/xlink" x="0px" y="0px"
	 viewBox="0 0 512 512" style="enable-background:new 0 0 512 512;" xml:space="preserve">
<g>
	<g transform="translate(11 1)">
		<path style="fill:#FEC108;" d="M134.067,112.92c-2.342,0.862-4.819,1.296-7.314,1.28c-12.142,0-43.886-21.333-43.886-21.333
			s31.744-21.333,43.886-21.333c2.495-0.016,4.973,0.418,7.314,1.28V112.92z"/>
		<path style="fill:#FDD834;" d="M313.267,365.933c0.01,17.709-6.877,34.727-19.2,47.445c-9.719,10.204-15.076,23.796-14.933,37.888
			c0.001,4.527-1.796,8.868-4.997,12.069c-3.201,3.201-7.543,4.999-12.069,4.997h-34.816c-9.158-0.367-16.391-7.902-16.384-17.067
			c0.035-14.196-5.405-27.858-15.189-38.144c-17.31-18.068-23.345-44.16-15.726-67.995s27.668-41.588,52.249-46.267
			c1.663-0.346,3.344-0.602,5.035-0.768c19.331-2.198,38.682,3.951,53.199,16.904C304.95,327.949,313.256,346.477,313.267,365.933z"
			/>
		<path style="fill:#FFEB3A;" d="M287.667,365.933c0.01,17.709-6.877,34.727-19.2,47.445c-9.719,10.204-15.076,23.796-14.933,37.888
			c0.001,4.527-1.796,8.868-4.997,12.069c-3.201,3.201-7.543,4.999-12.069,4.997h-9.216c-9.158-0.367-16.391-7.902-16.384-17.067
			c0.035-14.196-5.405-27.858-15.189-38.144c-17.31-18.068-23.345-44.16-15.726-67.995s27.668-41.588,52.249-46.267
			C264.394,305.002,287.678,333.158,287.667,365.933z"/>
		<polygon style="fill:#F44335;" points="167.347,135.533 125.533,177.261 125.533,177.347 125.789,178.2 218.547,178.2 
			269.747,135.533 269.747,50.2 218.547,7.533 125.789,7.533 125.533,8.387 125.533,8.472 167.347,50.2 		"/>
		<path style="fill:#C52828;" d="M355.08,135.533V50.2c1.195,0,2.389,0,3.584,0.085c27.051,1.877,53.333,23.381,65.792,35.072
			c4.693,4.523,7.424,7.509,7.424,7.509S393.651,135.533,355.08,135.533z"/>
		<path style="fill:#F44335;" d="M355.08,109.933V50.2c1.195,0,2.389,0,3.584,0.085c27.051,1.877,53.333,23.381,65.792,35.072
			C411.485,93.891,383.411,109.933,355.08,109.933z"/>
		<rect x="167.347" y="50.2" style="fill:#CFD8DC;" width="187.733" height="85.333"/>
		<rect x="167.347" y="50.2" style="fill:#F5F5F5;" width="187.733" height="59.733"/>
		<rect x="167.347" y="109.933" style="fill:#283593;" width="42.667" height="25.6"/>
		<rect x="167.347" y="50.2" style="fill:#3F51B5;" width="42.667" height="59.733"/>
		<polygon style="fill:#F5F5F5;" points="167.347,50.2 134.067,67.267 134.067,118.467 167.347,135.533 		"/>
	</g>
	<g>
		<path d="M332.8,110.933c2.263,0.001,4.434-0.898,6.035-2.499c1.6-1.6,2.499-3.771,2.499-6.035V85.333
			c0-4.713-3.82-8.533-8.533-8.533s-8.533,3.821-8.533,8.533V102.4c-0.001,2.263,0.898,4.434,2.499,6.035
			C328.366,110.035,330.537,110.934,332.8,110.933z"/>
		<path d="M298.667,110.933c2.263,0.001,4.434-0.898,6.035-2.499c1.6-1.6,2.499-3.771,2.499-6.035V85.333
			c0-4.713-3.82-8.533-8.533-8.533s-8.533,3.821-8.533,8.533V102.4c-0.001,2.263,0.898,4.434,2.499,6.035
			C294.233,110.035,296.403,110.934,298.667,110.933z"/>
		<path d="M221.867,494.933c-4.713,0-8.533,3.821-8.533,8.533c0,4.713,3.821,8.533,8.533,8.533h68.267
			c4.713,0,8.533-3.82,8.533-8.533c0-4.713-3.821-8.533-8.533-8.533H221.867z"/>
		<path d="M180.15,354.679c-3.841,23.763,3.711,47.949,20.392,65.304c8.285,8.697,12.871,20.271,12.791,32.283
			c0.015,14.132,11.468,25.585,25.6,25.6h34.133c14.132-0.015,25.585-11.468,25.6-25.6c-0.159-11.889,4.332-23.371,12.517-31.996
			c14.529-14.996,22.317-35.266,21.567-56.132c-0.75-20.866-9.974-40.525-25.542-54.439c-20.922-18.727-50.394-24.546-76.863-15.176
			C203.877,303.895,184.63,326.961,180.15,354.679L180.15,354.679z M256.075,307.196c14.682-0.046,28.854,5.381,39.75,15.22
			c12.108,10.817,19.283,26.102,19.869,42.327c0.587,16.225-5.466,31.989-16.761,43.652c-11.284,11.8-17.505,27.545-17.333,43.871
			c-0.005,4.711-3.822,8.529-8.533,8.533h-34.133c-4.713-0.007-8.531-3.829-8.533-8.542c0.088-16.413-6.201-32.218-17.542-44.083
			c-15.704-16.367-20.77-40.223-13.072-61.559c7.698-21.336,26.828-36.463,49.364-39.033
			C251.449,307.326,253.761,307.197,256.075,307.196L256.075,307.196z"/>
		<path d="M264.533,264.533v-17.067c0-4.713-3.821-8.533-8.533-8.533c-4.713,0-8.533,3.821-8.533,8.533v17.067
			c0,4.713,3.821,8.533,8.533,8.533C260.713,273.067,264.533,269.246,264.533,264.533z"/>
		<path d="M177.558,276.425c-2.154-2.162-5.299-3.008-8.247-2.22c-2.948,0.788-5.251,3.091-6.039,6.039
			c-0.788,2.948,0.058,6.093,2.22,8.247l12.067,12.067c2.156,2.155,5.297,2.997,8.242,2.208c2.944-0.789,5.244-3.089,6.033-6.033
			c0.789-2.944-0.053-6.086-2.208-8.242L177.558,276.425z"/>
		<path d="M153.6,375.467c4.713,0,8.533-3.82,8.533-8.533s-3.821-8.533-8.533-8.533h-17.067c-4.713,0-8.533,3.82-8.533,8.533
			s3.821,8.533,8.533,8.533H153.6z"/>
		<path d="M165.492,457.442c1.6,1.601,3.77,2.5,6.033,2.5c2.263,0,4.433-0.899,6.033-2.5l12.067-12.067
			c2.156-2.156,2.997-5.297,2.208-8.242c-0.789-2.944-3.089-5.244-6.033-6.033c-2.944-0.789-6.086,0.053-8.242,2.208l-12.067,12.067
			c-1.601,1.6-2.5,3.77-2.5,6.033S163.891,455.842,165.492,457.442z"/>
		<path d="M346.508,276.425c-1.6-1.601-3.77-2.5-6.033-2.5c-2.263,0-4.433,0.899-6.033,2.5l-12.067,12.067
			c-2.156,2.155-2.997,5.297-2.208,8.242c0.789,2.944,3.089,5.244,6.033,6.033s6.086-0.053,8.242-2.208l12.067-12.067
			c1.601-1.6,2.5-3.77,2.5-6.033S348.109,278.025,346.508,276.425z"/>
		<path d="M375.467,375.467c4.713,0,8.533-3.82,8.533-8.533s-3.821-8.533-8.533-8.533H358.4c-4.713,0-8.533,3.82-8.533,8.533
			s3.82,8.533,8.533,8.533H375.467z"/>
		<path d="M334.442,433.308c-2.155-2.155-5.297-2.997-8.242-2.208c-2.944,0.789-5.244,3.089-6.033,6.033
			c-0.789,2.944,0.053,6.086,2.208,8.242l12.067,12.067c2.154,2.162,5.299,3.008,8.247,2.22c2.948-0.788,5.251-3.091,6.039-6.039
			c0.788-2.948-0.058-6.093-2.22-8.247L334.442,433.308z"/>
		<path d="M486.4,85.333h-38.985c-9.696-9.982-44.206-42.667-80.481-42.667h-82.242L235.867,1.979
			C234.332,0.7,232.398-0.001,230.4,0h-93.867c-3.451,0-6.563,2.079-7.883,5.268c-1.321,3.189-0.59,6.859,1.85,9.299l34.292,34.295
			L141.25,60.633c-1.486,0.752-2.718,1.925-3.543,3.372c-13.695,0.032-40.656,17.437-48.599,22.778
			c-2.359,1.585-3.775,4.241-3.775,7.083c0,2.842,1.415,5.498,3.775,7.083c7.943,5.341,34.904,22.745,48.599,22.778
			c0.825,1.447,2.057,2.62,3.543,3.372l23.544,11.772L130.5,173.167c-2.441,2.44-3.171,6.11-1.85,9.299
			c1.321,3.189,4.432,5.268,7.883,5.268H230.4c1.998,0.001,3.932-0.7,5.467-1.979l48.825-40.688h82.242
			c36.275,0,70.784-32.684,80.481-42.667H486.4c4.711,0.005,8.529,3.822,8.533,8.533c0,4.713,3.821,8.533,8.533,8.533
			c4.713,0,8.533-3.821,8.533-8.533C511.985,96.801,500.532,85.349,486.4,85.333z M358.4,128h-128V59.733h128V128z M187.733,128
			V59.733h25.6V128H187.733z M157.133,17.067h70.175l30.72,25.6h-75.295L157.133,17.067z M136.533,81.231v25.27
			c-9.433-2.972-18.414-7.224-26.692-12.635C118.119,88.454,127.1,84.202,136.533,81.231z M153.6,73.542l17.067-8.533v57.717
			l-17.067-8.533V73.542z M227.308,170.667h-70.175l25.6-25.6h75.295L227.308,170.667z M375.467,127.185V60.548
			c23.383,4.1,46.082,23.499,56.292,33.319C421.549,103.686,398.849,123.086,375.467,127.185z"/>
		<path d="M503.467,341.333c-2.263-0.001-4.434,0.898-6.035,2.499s-2.499,3.771-2.499,6.035c-0.005,4.711-3.822,8.529-8.533,8.533
			h-56.2l2.5-2.5c3.296-3.338,3.279-8.711-0.038-12.029c-3.317-3.317-8.691-3.334-12.029-0.038l-17.061,17.061
			c-3.324,3.34-3.324,8.738,0,12.078l17.061,17.061c3.341,3.281,8.701,3.256,12.012-0.054c3.311-3.311,3.335-8.671,0.054-12.012
			l-2.5-2.5H486.4c14.132-0.015,25.585-11.468,25.6-25.6c0.001-2.263-0.898-4.434-2.499-6.035
			C507.901,342.232,505.73,341.333,503.467,341.333z"/>
		<path d="M503.467,136.533c-2.263-0.001-4.434,0.898-6.035,2.499s-2.499,3.771-2.499,6.035V179.2c0,4.713,3.821,8.533,8.533,8.533
			c4.713,0,8.533-3.82,8.533-8.533v-34.133c0.001-2.263-0.898-4.434-2.499-6.035C507.901,137.432,505.73,136.533,503.467,136.533z"
			/>
		<path d="M503.467,204.8c-2.263-0.001-4.434,0.898-6.035,2.499c-1.6,1.6-2.499,3.771-2.499,6.035v34.133
			c0,4.713,3.821,8.533,8.533,8.533c4.713,0,8.533-3.82,8.533-8.533v-34.133c0.001-2.263-0.898-4.434-2.499-6.035
			C507.901,205.698,505.73,204.799,503.467,204.8z"/>
		<path d="M503.467,273.067c-2.263-0.001-4.434,0.898-6.035,2.499c-1.6,1.6-2.499,3.771-2.499,6.035v34.133
			c0,4.713,3.821,8.533,8.533,8.533c4.713,0,8.533-3.821,8.533-8.533V281.6c0.001-2.263-0.898-4.434-2.499-6.035
			C507.901,273.965,505.73,273.066,503.467,273.067z"/>
		<path d="M0,110.933c0,4.713,3.821,8.533,8.533,8.533s8.533-3.821,8.533-8.533c0.005-4.711,3.822-8.529,8.533-8.533h13.533
			l-2.5,2.5c-2.178,2.151-3.037,5.304-2.251,8.262c0.786,2.958,3.097,5.269,6.055,6.055c2.958,0.786,6.111-0.073,8.262-2.251
			l17.061-17.061c3.324-3.34,3.324-8.738,0-12.078L48.7,70.767c-3.341-3.281-8.701-3.256-12.012,0.054s-3.335,8.671-0.054,12.012
			l2.5,2.5H25.6C11.468,85.349,0.015,96.801,0,110.933z"/>
		<path d="M25.6,375.467h8.533c4.713,0,8.533-3.82,8.533-8.533s-3.821-8.533-8.533-8.533H25.6c-4.711-0.005-8.529-3.822-8.533-8.533
			c0-4.713-3.821-8.533-8.533-8.533S0,345.154,0,349.867C0.015,363.999,11.468,375.451,25.6,375.467z"/>
		<path d="M8.533,187.733c2.263,0.001,4.434-0.898,6.035-2.499c1.6-1.6,2.499-3.771,2.499-6.035v-34.133
			c0-4.713-3.821-8.533-8.533-8.533S0,140.354,0,145.067V179.2c-0.001,2.263,0.898,4.434,2.499,6.035
			C4.099,186.835,6.27,187.734,8.533,187.733z"/>
		<path d="M8.533,256c2.263,0.001,4.434-0.898,6.035-2.499s2.499-3.771,2.499-6.035v-34.133c0-4.713-3.821-8.533-8.533-8.533
			S0,208.621,0,213.333v34.133c-0.001,2.263,0.898,4.434,2.499,6.035S6.27,256.001,8.533,256z"/>
		<path d="M8.533,324.267c2.263,0.001,4.434-0.898,6.035-2.499s2.499-3.771,2.499-6.035V281.6c0-4.713-3.821-8.533-8.533-8.533
			S0,276.887,0,281.6v34.133c-0.001,2.263,0.898,4.434,2.499,6.035S6.27,324.267,8.533,324.267z"/>
		<path d="M59.733,366.933c-0.001,2.263,0.898,4.434,2.499,6.035c1.6,1.6,3.771,2.499,6.035,2.499H102.4
			c4.713,0,8.533-3.82,8.533-8.533s-3.821-8.533-8.533-8.533H68.267c-2.263-0.001-4.434,0.898-6.035,2.499
			C60.632,362.499,59.733,364.67,59.733,366.933z"/>
	</g>
</g>
<g>
</g>
<g>
</g>
<g>
</g>
<g>
</g>
<g>
</g>
<g>
</g>
<g>
</g>
<g>
</g>
<g>
</g>
<g>
</g>
<g>
</g>
<g>
</g>
<g>
</g>
<g>
</g>
<g>
</g>
</svg>
