<svg width="506" height="512" xmlns="http://www.w3.org/2000/svg">
  <g fill-rule="nonzero" fill="none">
    <path d="M496.755 495.913V395.746a33.635 33.635 0 0 0-14.339-27.544l-63.199-44.245a25.214 25.214 0 0 0-14.465-4.556h-50.886l.841 143.815c.311 14.987 10.103 28.116 24.375 32.697h117.673z" fill="#FEC9A3"/>
    <path d="M446.324 495.912h-58.837c-18.567 0-33.621-15.054-33.621-33.621V428.67h58.837l33.621 67.242z" fill="#FABD91"/>
    <path d="M227.786 67.242a41.924 41.924 0 0 0-16.811 3.547V8.405H59.68c-27.855 0-50.432 22.577-50.432 50.432v151.295h62.384c-9.33-21.249.328-46.044 21.585-55.374 21.249-9.33 46.044.328 55.374 21.585a42.008 42.008 0 0 1 0 33.798h62.384v-62.384c21.249 9.33 46.044-.328 55.374-21.585 9.33-21.257-.328-46.044-21.585-55.374a41.846 41.846 0 0 0-16.978-3.556z" fill="#88B337"/>
    <path d="M412.702 58.837c0-27.855-22.577-50.432-50.432-50.432H210.975v62.384c21.249-9.33 46.044.328 55.374 21.585 9.33 21.249-.328 46.044-21.585 55.374a42.008 42.008 0 0 1-33.798 0v62.384h62.384c-9.33 21.249.328 46.044 21.585 55.374 21.249 9.33 46.044-.328 55.374-21.585a42.008 42.008 0 0 0 0-33.798h62.384V58.837h.009z" fill="#E8594A"/>
    <path d="M412.702 63.636c-48.045 66.839-134.779 104.806-201.727 125.239v21.257h62.384c-9.33 21.249.328 46.044 21.585 55.374 21.249 9.33 46.044-.328 55.374-21.585a42.008 42.008 0 0 0 0-33.798h62.384V63.636z" fill="#D65245"/>
    <path d="M194.165 277.375a41.924 41.924 0 0 1 16.811 3.547v-70.789h-62.384c9.33-21.249-.328-46.044-21.585-55.374-21.257-9.33-46.044.328-55.374 21.585a42.008 42.008 0 0 0 0 33.798H9.248v151.295c0 27.855 22.577 50.432 50.432 50.432h151.296l-.001-53.979c-21.249 9.33-46.044-.328-55.374-21.585-9.33-21.249.328-46.044 21.585-55.374a41.848 41.848 0 0 1 16.979-3.556z" fill="#FDB62F"/>
    <path d="M9.248 361.428c0 27.855 22.577 50.432 50.432 50.432h151.295v-53.979c-21.148 9.313-45.842-.277-55.156-21.425a41.912 41.912 0 0 1-3.53-15.558A367.63 367.63 0 0 1 9.248 352.712v8.716z" fill="#FFA719"/>
    <path d="M434.682 385.803l-53.18-142.049-58.408 21.997c16.281 16.584 16.029 43.228-.555 59.501-16.584 16.273-43.228 16.029-59.501-.555a42.082 42.082 0 0 1-11.986-31.806l-58.4 21.997 24.88 66.477a41.623 41.623 0 0 0-16.979 2.589c-21.702 8.422-32.461 32.839-24.039 54.542 8.279 21.324 32.058 32.159 53.584 24.392a41.685 41.685 0 0 0 14.499-9.263l18.962 50.692 141.646-53.348c26.115-9.884 39.303-39.034 29.477-65.166z" fill="#4398D1"/>
    <path d="M407.256 312.551c-57.997 86.743-166.719 117.035-230.397 127.466 8.935 21.257 33.411 31.242 54.668 22.308a41.697 41.697 0 0 0 13.07-8.699l18.962 50.692 141.646-53.348c26.098-9.885 39.278-39.017 29.477-65.141l-27.426-73.278z" fill="#3E8FC9"/>
    <path d="M227.786 67.242a41.924 41.924 0 0 0-16.811 3.547V58.593C148.037 116.531 62.765 148.53 9.248 164.122v46.011h62.384c-9.33-21.249.328-46.044 21.585-55.374 21.249-9.33 46.044.328 55.374 21.585a42.008 42.008 0 0 1 0 33.798h62.384v-62.384c21.249 9.33 46.044-.328 55.374-21.585 9.33-21.257-.328-46.044-21.585-55.374a41.83 41.83 0 0 0-16.978-3.557z" fill="#80A834"/>
    <path d="M396.043 386.795c-8.044-8.204-21.215-8.338-29.419-.294-8.204 8.044-8.338 21.215-.294 29.419.101.101.193.202.294.294l29.267 29.267c0 27.855 22.577 50.432 50.432 50.432h50.432v-8.405L396.043 386.795z" fill="#FEC9A3"/>
    <path d="M194.165 268.272c-27.855-.008-50.44 22.56-50.449 50.415-.008 20.063 11.885 38.227 30.276 46.246l6.724-15.398c-17.029-7.405-24.829-27.216-17.416-44.245a33.613 33.613 0 0 1 30.864-20.206c4.631 0 9.212.967 13.448 2.841a8.406 8.406 0 0 0 11.768-7.7v-61.686h42.741a49.425 49.425 0 0 0-.714 8.405c.05 23.947 16.895 44.582 40.345 49.423l3.362-16.466c-15.634-3.236-26.863-16.987-26.897-32.957 0-4.631.967-9.212 2.841-13.448a8.406 8.406 0 0 0-7.7-11.768h-53.979v-42.741c2.774.479 5.59.714 8.405.714 27.855 0 50.432-22.577 50.432-50.432s-22.577-50.432-50.432-50.432c-2.816 0-5.632.235-8.405.714v-42.74h142.89c23.199.025 42.001 18.828 42.026 42.026v142.89h-53.979a8.398 8.398 0 0 0-8.397 8.414c0 1.152.235 2.295.698 3.354a33.24 33.24 0 0 1 2.841 13.448h16.811c0-2.816-.235-5.632-.714-8.405h51.146a8.408 8.408 0 0 0 8.405-8.405V58.837C421.066 26.359 394.749.042 362.271 0H59.68C27.202.042.885 26.359.843 58.837V360.73c.042 32.478 26.359 58.795 58.837 58.837h92.458v-16.811H59.68c-23.199-.025-42.001-18.828-42.026-42.026V218.538h53.979c4.984-.361 8.725-4.699 8.363-9.683a8.9 8.9 0 0 0-.664-2.791c-7.472-16.995.252-36.832 17.256-44.304 16.996-7.472 36.832.252 44.304 17.256a33.607 33.607 0 0 1 0 27.057 8.722 8.722 0 0 0 4.102 11.625 8.719 8.719 0 0 0 3.597.849h53.979v50.432a48.41 48.41 0 0 0-8.405-.707zM59.68 16.811h142.89V70.79a8.398 8.398 0 0 0 8.414 8.397 8.373 8.373 0 0 0 3.354-.698 33.24 33.24 0 0 1 13.448-2.841c18.567 0 33.621 15.054 33.621 33.621s-15.054 33.621-33.621 33.621a33.24 33.24 0 0 1-13.448-2.841 8.406 8.406 0 0 0-11.768 7.7v53.281h-42.682c.42-2.547.639-5.127.656-7.708v-.437-.261c0-27.855-22.577-50.432-50.432-50.432S59.68 164.769 59.68 192.624v.698c.017 2.58.235 5.161.656 7.708H17.654V58.837c.033-23.199 18.828-42.001 42.026-42.026z" fill="#000"/>
    <path d="M487.182 361.276l-70.663-48.658-27.141-72.512a8.397 8.397 0 0 0-10.809-4.942c-.16.059-.311.118-.462.185l-54.634 24.165a8.41 8.41 0 0 0-4.455 10.692c.908 2.353 1.757 4.135 2.656 5.985.899 1.85 1.732 3.581 2.749 6.312 6.523 17.433-2.261 36.866-19.66 43.481-17.391 6.506-36.765-2.32-43.27-19.71a33.648 33.648 0 0 1-2.076-13.667 8.404 8.404 0 0 0-11.364-8.304l-58.4 21.997a8.405 8.405 0 0 0-4.909 10.818l20.963 55.996a47.222 47.222 0 0 0-8.153 2.253c-26.157 9.75-39.454 38.849-29.713 65.007 9.75 26.157 38.849 39.454 65.007 29.713 2.69-1 5.295-2.236 7.783-3.682l15.029 40.144a8.411 8.411 0 0 0 10.818 4.925c.008 0 .008 0 .017-.008l83.28-31.377a45.138 45.138 0 0 0 26.62 23.77l5.312-15.97a28.361 28.361 0 0 1-16.071-13.734l25.342-9.54c8.321 23.417 30.503 39.043 55.349 39.009v-16.811c-23.148-.143-41.884-18.878-42.026-42.026a8.386 8.386 0 0 0-2.463-5.943l-29.267-29.267c-4.337-4.379-4.833-11.271-1.152-16.214a12.24 12.24 0 0 1 9.036-4.925 12.03 12.03 0 0 1 9.649 3.606l58.686 58.686 11.885-11.885-17.365-17.365a58.617 58.617 0 0 0-.748-39.295l-15.752-42.069 50.793 34.974a25.263 25.263 0 0 1 10.75 20.66v108.571h16.811V395.746a42.112 42.112 0 0 0-17.982-34.47zm-57.913 46.154l-27.284-27.275c-11.263-11.549-29.755-11.784-41.304-.521-11.549 11.263-11.784 29.755-.521 41.304.168.177.345.353.521.521l26.586 26.586-118.784 44.741-16.02-42.808a8.407 8.407 0 0 0-13.751-3.059c-13.499 12.751-34.773 12.146-47.532-1.353-12.751-13.499-12.146-34.773 1.353-47.532a33.578 33.578 0 0 1 10.977-6.926 32.428 32.428 0 0 1 8.313-1.883 30.732 30.732 0 0 1 5.27-.177 8.404 8.404 0 0 0 8.313-11.338l-21.955-58.618 40.026-15.071c5.253 27.351 31.688 45.271 59.039 40.018a50.431 50.431 0 0 0 8.204-2.311c26.065-9.885 39.236-38.975 29.477-65.091a74.745 74.745 0 0 0-2.143-5.169l38.664-17.122 50.096 133.72a41.974 41.974 0 0 1 2.455 19.364z" fill="#000"/>
  </g>
</svg>
