<?xml version="1.0" encoding="UTF-8"?> <svg xmlns="http://www.w3.org/2000/svg" xmlns:xlink="http://www.w3.org/1999/xlink" width="220px" height="62px" viewBox="0 0 220 62"><!-- Generator: Sketch 52.6 (67491) - http://www.bohemiancoding.com/sketch --><title>Logo@3x</title><desc>Created with Sketch.</desc><g id="Logo" stroke="none" stroke-width="1" fill="none" fill-rule="evenodd"><g id="zibbet-logo-rgb" transform="translate(2.000000, 3.000000)"><g id="Group-5" transform="translate(68.000000, 0.000000)" fill="#000000"><g id="Group-6"><path d="M47.9236141,25.4689065 C46.0206533,25.4689065 44.4729313,23.9242601 44.4729313,22.025889 C44.4729313,20.1275178 46.0206533,18.5828715 47.9236141,18.5828715 C49.8262117,18.5828715 51.374297,20.1275178 51.374297,22.025889 C51.374297,23.9242601 49.8262117,25.4689065 47.9236141,25.4689065" id="Fill-1"></path><path d="M112.091423,42.9184815 C112.100503,41.1850128 112.351132,39.4203758 112.857111,37.7651904 C113.36309,36.1176159 114.126236,34.5486872 115.180692,33.4005315 C115.707375,32.8315276 116.292175,32.3698008 116.926374,32.0831243 C117.240931,31.9327188 117.568564,31.8308779 117.904915,31.7634673 C118.071637,31.7228759 118.244535,31.7105535 118.416706,31.689533 L118.678231,31.6757609 C118.760321,31.6743113 118.820617,31.6743113 118.888904,31.6793852 C119.154789,31.6960566 119.38435,31.7594806 119.557247,31.8518985 C119.733777,31.9435915 119.855459,32.0566674 119.952441,32.2056232 C120.146406,32.4904876 120.23903,33.0402831 120.088652,33.7209133 C119.947356,34.3961072 119.620449,35.1412487 119.176582,35.8548593 C118.703657,36.6184844 118.163535,37.4208887 117.623049,38.1703792 C116.533723,39.6853069 115.333975,41.1067295 114.015814,42.378109 C113.40813,42.9641468 112.774658,43.5190163 112.118302,44.0347441 C112.097961,43.6647103 112.087427,43.2917771 112.091423,42.9184815 Z M99.4837171,42.5716428 C99.1179447,45.2071821 97.9181968,47.7734986 96.0221374,49.334454 C95.0784664,50.1136633 93.9800596,50.6471498 92.7737735,50.8725768 C92.4733825,50.9320142 92.1650004,50.967894 91.8537125,50.9943509 C91.5460569,51.0171835 91.2042577,51.0237071 90.9499968,51.0106599 C90.4106006,50.9776794 89.9358593,50.8609793 89.5112437,50.6620091 C89.0884442,50.4590523 88.7030575,50.1662146 88.3430968,49.7718985 C87.9834993,49.3797569 87.660588,48.8796133 87.3787217,48.3189451 C86.8538547,47.2708181 86.4967998,46.0128482 86.2508933,44.7012398 C86.2607005,44.6845683 86.2712341,44.6675344 86.2810413,44.6512254 C87.1095684,43.2323398 87.8857905,41.792796 88.6235101,40.338393 C90.1498016,37.3132491 91.5311645,34.2319296 92.782491,31.099871 C94.9364436,31.7395474 96.7199018,33.2088098 97.9403538,35.1006573 C98.291597,35.6461038 98.6068804,36.2321416 98.8589619,36.8283272 C99.1026891,37.3937069 99.2792187,38.0062016 99.4027169,38.6371799 C99.6460808,39.9027606 99.6686011,41.2509738 99.4837171,42.5716428 Z M85.8800357,35.3876962 C86.2799516,29.23593 87.455,23.0424852 89.0321436,17.0139428 C89.8159935,14.000034 90.7309693,11.0038839 91.9241791,8.20815371 C92.2223907,7.5115769 92.5427594,6.83203398 92.8940026,6.19163272 C93.2434296,5.55449328 93.6168298,4.93982405 94.0152929,4.45164041 C94.2107105,4.20845465 94.4133927,3.99571241 94.5761196,3.86451532 C94.6651109,3.78405744 94.7384834,3.74527819 94.7668153,3.72896916 L94.8013221,3.73513035 C94.8085867,3.73476792 94.8681564,3.76811083 94.9604167,3.91561695 C95.1474801,4.21316614 95.319651,4.83472141 95.387575,5.49179411 C95.4620371,6.15611528 95.4689384,6.88168591 95.4377007,7.61704197 C95.3748619,9.09427768 95.1518388,10.618266 94.8703358,12.1364555 C94.300065,15.1793581 93.4631836,18.2160995 92.5071629,21.2118871 C91.5460569,24.2087621 90.4687174,27.1777304 89.2791399,30.0984965 C88.2047062,32.7394721 87.0438239,35.3445679 85.7823269,37.8898639 C85.7957664,37.0588282 85.8280938,36.2245307 85.8800357,35.3876962 Z M72.4630543,45.0748978 C71.9360079,46.5155288 71.1619653,47.8477953 70.1332986,48.8575055 C69.1122597,49.8762763 67.8569376,50.5540071 66.4690366,50.8453951 C66.1214257,50.9182421 65.7654605,50.9675316 65.402594,50.9950757 C65.2213424,51.0092102 65.0379113,51.0153714 64.8537538,51.0186332 C64.6833991,51.0171835 64.5301161,51.0121096 64.3757434,50.9972503 C63.7615219,50.9392626 63.2410136,50.7696487 62.7731737,50.4818849 C61.8411261,49.922304 61.0496484,48.7350066 60.5240549,47.2679187 C60.2683412,46.566268 60.0667486,45.8146029 59.9069275,45.0343064 C59.9261787,44.9995138 59.9468828,44.9658085 59.966134,44.9310159 C60.9025404,43.2595215 61.7652111,41.5637448 62.5766664,39.8505717 C63.9467691,36.970397 65.2031809,34.0518054 66.3578883,31.0962467 C68.9204744,31.8522609 70.9592831,33.7854246 72.1572149,36.1984362 C72.2422106,36.3691374 72.3213947,36.542738 72.397673,36.7181507 C72.4706822,36.8863149 72.53679,37.0494052 72.599992,37.2204688 C72.7242165,37.5604215 72.8281002,37.9134214 72.9116431,38.2751194 C73.0761862,38.9992404 73.1680833,39.7563418 73.1887874,40.5228662 C73.21494,42.0544654 72.9919169,43.6295553 72.4630543,45.0748978 Z M59.382787,37.1570448 C59.4390876,35.3793605 59.5785678,33.5893538 59.7841559,31.8004344 C59.9784838,30.0104277 60.2341976,28.2196962 60.5440326,26.4358507 C61.1713304,22.8688846 61.9835122,19.3240263 62.9329948,15.8313569 C63.4066464,14.0852034 63.9384148,12.3575334 64.5428291,10.672267 C65.1526919,8.99569866 65.8232141,7.33181515 66.659369,5.86980119 C67.0669128,5.15002933 67.5405644,4.45272768 67.9847945,4.02398139 C68.1369877,3.86487774 68.2960824,3.76339933 68.347661,3.729694 L68.3865266,3.73476792 C68.3916118,3.72896916 68.4744282,3.78405744 68.5855765,3.98520214 C68.6912764,4.1870717 68.7980659,4.4878827 68.8688957,4.8361711 C69.0160038,5.53383517 69.0595914,6.36813267 69.0439725,7.21257802 C69.0149141,8.91451593 68.7552048,10.6947372 68.4246657,12.4590118 C68.0861356,14.2265483 67.6706007,15.997709 67.1776979,17.7521982 C66.2013363,21.2655257 65.0081265,24.7375371 63.6612705,28.1450371 C62.3888766,31.3858226 60.9523028,34.5635466 59.3744327,37.6492151 C59.378065,37.4850375 59.378065,37.3212224 59.382787,37.1570448 Z M13.8933432,50.4746365 C13.0234079,50.9095439 12.1334949,51.242973 11.2446717,51.4433929 C11.0220118,51.5039175 10.8008049,51.5267501 10.5785083,51.5731403 C10.3580278,51.5934359 10.1350047,51.6376515 9.91597718,51.642363 L9.58289548,51.6622963 L9.20767913,51.6680951 C8.95886673,51.6677326 8.7107808,51.6641084 8.46487424,51.6550478 C7.48488031,51.6155437 6.52958601,51.4752861 5.7108661,51.2139792 C5.30550168,51.0835069 4.93464408,50.9193294 4.65822622,50.7413797 C4.37635992,50.568504 4.17658355,50.3390903 4.13808119,50.2738542 C4.15696914,50.201732 4.31134179,49.9889898 4.58449058,49.7950935 C5.13551014,49.3928041 6.02288048,49.0666235 6.95238547,48.8988217 C7.89424027,48.7215969 8.88840015,48.6538238 9.92869022,48.6704953 C10.9842359,48.6791934 12.0223466,48.7574768 13.0230447,48.9144059 C13.8940697,49.0615496 14.730951,49.2695803 15.5068098,49.5664047 C14.9775841,49.9001962 14.4403672,50.2078932 13.8933432,50.4746365 Z M146.84561,48.8390219 C146.515071,48.4291217 145.914289,48.364248 145.503476,48.6940528 L145.432283,48.7513156 C144.539828,49.4678257 143.713843,49.9705062 142.839549,50.3003111 C141.981237,50.6460625 141.086966,50.8294485 140.162546,50.9381753 C139.697248,50.9834782 139.227229,51.0142842 138.746313,51.0189957 C138.315159,51.0012369 137.941033,50.9374505 137.595601,50.8323479 C136.926532,50.5956857 136.38423,50.2553706 135.877161,49.6769437 C134.843772,48.5334994 134.054111,46.5822146 133.568836,44.5091556 C133.07339,42.4194252 132.865986,40.1622554 132.792614,37.8913136 C132.752295,36.2538869 132.790798,34.6037755 132.888143,32.949315 C133.439526,32.9670737 133.991998,32.9616374 134.543018,32.9326435 C135.710802,32.8626959 136.876769,32.6927196 138.022396,32.3955328 C139.16548,32.0961715 140.299847,31.6898954 141.347765,31.0759511 C142.389508,30.4670806 143.369501,29.6693878 144.048741,28.6455431 C144.219822,28.3867732 144.257961,28.0464581 144.118481,27.743835 C143.903812,27.2766719 143.35025,27.0719029 142.882047,27.2860949 L142.813033,27.3176256 C141.934017,27.7202775 141.062629,27.9986183 140.155644,28.1896151 C139.250839,28.3748132 138.329688,28.5009364 137.391103,28.5411653 C136.034803,28.6038645 134.663973,28.5172454 133.3084,28.3527054 C133.479481,26.9298331 133.68289,25.508773 133.917536,24.0945988 C134.300017,21.7993747 134.778391,19.5171977 135.360648,17.2701758 C135.926923,15.0195296 136.615607,12.8015015 137.456847,10.6896633 L137.470287,10.6566828 C137.761597,9.91842734 137.441228,9.06782081 136.715132,8.71083426 C135.949807,8.3346393 135.023934,8.64885995 134.647265,9.41212256 C132.438828,13.8858708 131.069452,18.5727236 129.981215,23.3255375 C129.438913,25.7030317 129.033549,28.1113318 128.717176,30.5395652 C128.534108,31.9765719 128.393901,33.4230017 128.296919,34.8788545 C127.590437,37.6887192 126.683452,40.4257369 125.470265,42.9623347 C124.680603,44.6088219 123.758,46.1686901 122.667221,47.4998693 C121.583706,48.8306862 120.317487,49.9230288 118.980075,50.5134157 C118.311006,50.8022668 117.632493,50.9675316 116.950347,51.0106599 C116.230789,51.0490768 115.692846,50.9726055 115.194858,50.7642124 C114.711399,50.552195 114.278066,50.2053563 113.876697,49.7062999 C113.475691,49.2050691 113.128807,48.5606812 112.856021,47.8340233 C112.850573,47.8198888 112.846577,47.804667 112.841129,47.7905325 C114.1335,46.9163685 115.323804,45.9193431 116.424027,44.8541822 C117.907094,43.4124639 119.229614,41.8428104 120.433721,40.2079207 C121.038498,39.3808717 121.59533,38.5708565 122.155793,37.6829204 C122.738777,36.7453324 123.252747,35.7008296 123.540425,34.4740281 C123.679542,33.8600837 123.755457,33.1928632 123.690439,32.4799773 C123.631959,31.7736151 123.417653,31.0139767 123.001755,30.3333465 C122.590579,29.6512667 121.976358,29.073927 121.295302,28.7020811 C120.613883,28.3222619 119.879069,28.1305402 119.173313,28.0711028 C118.998963,28.0555187 118.814806,28.0508072 118.652805,28.0504447 L118.183512,28.0627671 C117.870771,28.086687 117.555488,28.1102445 117.244563,28.171494 C116.621624,28.2784087 116.006676,28.4574456 115.432773,28.709692 C114.857417,28.9594014 114.316568,29.2670984 113.815311,29.6135747 C113.319502,29.9658497 112.865465,30.3565416 112.448841,30.7711534 C110.796872,32.4473593 109.731882,34.4290877 108.986534,36.4564813 C108.24264,38.4914859 107.812213,40.6025993 107.674185,42.7593779 C107.605172,44.0227841 107.635683,45.3053987 107.812576,46.6003357 C106.299361,47.2247904 104.704419,47.5951866 103.086593,47.7126116 C103.724425,46.2781418 104.144682,44.7690128 104.351359,43.2312525 C104.599808,41.383983 104.539512,39.4859743 104.111991,37.6220334 C103.891874,36.6916938 103.586761,35.7689651 103.162871,34.8795793 C102.750242,34.0202746 102.266784,33.2113467 101.692517,32.4506211 C100.552702,30.9335189 99.0699984,29.6360449 97.3373924,28.770579 C96.3130844,28.2573882 95.1954264,27.9087374 94.0599701,27.7525331 C94.7206851,25.9447677 95.3443506,24.1228678 95.9222492,22.2835716 C96.8819022,19.1754329 97.7296805,16.0263404 98.3409962,12.7793937 C98.641024,11.1528397 98.8760337,9.50309071 98.9722896,7.78411892 C99.0151507,6.9226397 99.0202359,6.04340176 98.9265226,5.11668642 C98.879666,4.65278511 98.808473,4.17619901 98.6827955,3.67678026 C98.5563915,3.17917363 98.3784089,2.65257316 98.0649416,2.10531459 C97.7547434,1.56494206 97.26402,0.978179391 96.5673453,0.587487511 C96.2244564,0.39322884 95.8470606,0.256957832 95.4794721,0.182661139 C95.2953146,0.144244312 95.1155159,0.122498938 94.9382597,0.109089291 L94.677824,0.0996662959 C94.565586,0.100753565 94.4424511,0.107277177 94.3254911,0.117062595 C93.3938067,0.231588229 92.7835807,0.62989099 92.3204628,0.974917585 C91.849717,1.33480352 91.4970209,1.70519972 91.1777419,2.07414622 C89.9354961,3.54848256 89.1447449,5.04057761 88.3630744,6.54354535 C86.8553076,9.55382991 85.7020531,12.6347869 84.6904582,15.7595971 C83.6952086,18.888394 82.9280673,22.0755409 82.3120296,25.2967556 C81.7014404,28.5201448 81.2575736,31.7834005 81.0603398,35.0970331 C80.8696442,38.411028 80.8801778,41.7753997 81.4856819,45.2245784 C81.4980317,45.2923515 81.5125609,45.360487 81.5252739,45.4282601 C81.4482692,45.5445978 81.3734439,45.6634725 81.2957127,45.7783606 L80.9709853,46.253497 C80.8787249,46.3712845 80.8038996,46.490884 80.706554,46.5952618 C79.98409,47.4600028 78.9325398,48.0032747 77.6819397,48.1855735 C77.272943,48.248635 76.8465112,48.2696556 76.4200795,48.2573332 C76.6630802,47.7608138 76.877749,47.2530594 77.0644491,46.7391437 C77.8047114,44.6910919 78.1693941,42.5274272 78.0647839,40.3467287 C78.0179272,39.256923 77.8588326,38.1620435 77.5613474,37.0863723 C77.4142394,36.5481743 77.2344406,36.0143254 77.0186821,35.4898995 C76.9104397,35.228955 76.79239,34.9654736 76.6681654,34.7128648 C76.5446673,34.4682293 76.4160839,34.2264933 76.280236,33.9883814 C75.2018068,32.0823994 73.6646184,30.3840858 71.7402271,29.2257822 C70.492896,28.4614323 69.0683089,27.9446173 67.6139369,27.748184 C68.6880073,24.761457 69.6592837,21.7363131 70.5139634,18.664779 C71.0035971,16.8356307 71.4670783,14.9934351 71.8335771,13.1120979 C72.1960804,11.2282237 72.4888436,9.32006715 72.5680277,7.3057207 C72.598539,6.29528567 72.5814672,5.25984346 72.3686146,4.13270826 C72.2596457,3.57022793 72.0936496,2.97367985 71.7805456,2.34523855 C71.4656254,1.72730751 70.9436642,1.02094529 70.1227649,0.570453635 C69.7206695,0.348288401 69.277166,0.20911801 68.8565459,0.147143695 C68.6404242,0.111988674 68.4490021,0.104377794 68.2350598,0.0996662959 C67.9564625,0.102928102 67.6873093,0.138445546 67.4475776,0.199695015 C66.4842923,0.463176459 65.9365418,0.931064415 65.4665224,1.34277682 C65.0048574,1.7682613 64.6430806,2.1988197 64.3150841,2.62865325 C63.9856347,3.05776196 63.692145,3.48687066 63.4189962,3.91924118 C62.3445626,5.64908565 61.4942417,7.39197735 60.7271004,9.16495015 C59.9643179,10.9361108 59.2908899,12.7275672 58.6781212,14.5349702 C57.4580324,18.1515882 56.5408772,21.8486642 55.8485613,25.5953921 C55.5016769,27.468756 55.2052814,29.3548047 54.9811686,31.2568001 C54.7654101,33.1595203 54.6175756,35.0781871 54.5594588,37.0142502 C54.5046111,38.9510381 54.5409341,40.9070345 54.7425266,42.8891253 C54.8166255,43.5969372 54.9099756,44.3094606 55.0320208,45.0252458 C54.5067905,45.788146 53.963762,46.5300257 53.4000294,47.2432739 C52.8577274,47.9228169 52.2954477,48.5701042 51.7150065,49.1514305 C51.1381976,49.7302198 50.5312407,50.2502967 49.964239,50.5982227 C49.6834624,50.770736 49.4146723,50.8986713 49.2029094,50.9646322 C49.0993889,50.9943509 49.0089447,51.0139217 48.9417472,51.0200829 C48.9108726,51.0186332 48.8785452,51.0258817 48.8589308,51.0200829 C48.8440384,51.0266065 48.8473074,51.0005121 48.8167961,51.0385665 L48.7176344,51.0367544 C48.1702471,51.0342174 47.8429771,50.9291148 47.5284201,50.6931775 C47.2105941,50.4583274 46.8775124,49.9868152 46.6221618,49.3536625 C46.363179,48.7248587 46.18447,47.9590592 46.0678732,47.1588294 C45.8368591,45.5474972 45.8364958,43.7893838 45.9472809,42.0276461 C46.0587925,40.2615593 46.2847214,38.4748144 46.5793007,36.6931435 C46.7685434,35.5576726 46.9908401,34.4080671 47.2367466,33.2780326 C47.3994736,32.6358192 47.5523933,31.9917937 47.6875148,31.3448688 L47.7154835,31.2111348 C47.912354,30.2644862 47.3253747,29.3239988 46.3766185,29.0884239 C45.4042524,28.8474127 44.4206262,29.4385244 44.1790784,30.4087305 L44.1787152,30.4098178 C44.1703609,30.4380868 44.1630963,30.4659933 44.154742,30.4942623 C42.9284783,34.5900034 41.2267468,38.5324397 38.9932469,42.0758483 C37.8755889,43.8480963 36.6100964,45.5108925 35.2094824,46.9729065 C34.5066328,47.7010141 33.7652808,48.3733085 32.9912382,48.9571718 C32.222644,49.546109 31.41809,50.046615 30.6095406,50.4097628 C29.8020808,50.7725481 28.9935313,50.9849279 28.2539955,51.0160963 C28.091995,51.0215326 27.8413665,51.0160963 27.6078097,51.012472 C27.3691678,51.0164587 27.1508667,50.9871024 26.9223951,50.9769546 C26.4792548,50.9338263 26.0524598,50.869315 25.6598084,50.7692863 C24.8563442,50.5898869 24.190544,50.2564579 23.4023354,49.7450792 C23.2984517,49.6765813 23.1920254,49.6030094 23.0837829,49.5261758 C24.4437152,48.3062603 25.7059386,47.0095112 26.9045969,45.6739828 C28.4479602,43.9510244 29.8907088,42.1628298 31.2575425,40.32897 C32.6116631,38.4860496 33.8949538,36.6025378 35.117222,34.6824213 C35.728901,33.722363 36.3140641,32.7467206 36.8905098,31.7645546 C37.469498,30.7733279 38.0168853,29.8067461 38.569721,28.7433973 L38.569721,28.7430349 C38.8788296,28.1849036 38.9627356,27.4952129 38.7368067,26.8450262 C38.3147337,25.628735 36.9845863,24.9843471 35.7659504,25.4054825 L35.5352995,25.4852155 L35.1887783,25.6051775 L34.7776022,25.7378242 C34.4982785,25.8248057 34.2142328,25.9164987 33.9240122,25.9976815 C33.3468401,26.1647584 32.7558653,26.3158888 32.1583523,26.4507101 C30.9665954,26.7297757 29.7526815,26.9573773 28.5304133,27.1545353 C26.0800653,27.522757 23.5923046,27.7405732 21.0911044,27.8000105 L19.1957714,27.8380649 L17.3294968,27.8485752 C17.0207515,27.8500249 16.7160018,27.8438637 16.4108887,27.8362528 C16.1057757,27.8366152 15.8024789,27.830454 15.4995452,27.8221183 C14.8951309,27.7981984 14.2936224,27.76703 13.6884816,27.7112169 C12.482922,27.5985034 11.2381336,27.3926472 10.0253093,27.1280785 C9.41508333,27.0012305 8.80848961,26.855174 8.20843402,26.6928086 C7.90949592,26.6094513 7.60619906,26.5315304 7.31234617,26.4387501 L6.47183248,26.1633087 L6.35087696,26.1234422 C6.01343651,26.0129032 5.62732326,26.1067708 5.37960055,26.3909103 C5.04906146,26.7700047 5.08901673,27.3444449 5.46895508,27.6738873 C5.78460175,27.9478791 6.04176843,28.1421377 6.33780069,28.3512557 C6.62547867,28.5549374 6.9149728,28.7513706 7.21173152,28.9340318 C7.80488574,29.3008037 8.41692791,29.6273467 9.03950374,29.9303323 C9.66462218,30.2249821 10.296642,30.5105713 10.9428277,30.7501329 C11.5857444,30.9998422 12.2428271,31.243028 12.9180713,31.4448976 C13.5922257,31.6525659 14.2798197,31.8341398 14.9710459,31.9743974 C15.3161142,32.044345 15.661909,32.1117557 16.0069772,32.171193 C16.352772,32.2222947 16.6985667,32.2704969 17.0414556,32.3107259 C17.7286864,32.4006067 18.412648,32.4495338 19.0889819,32.4846888 C19.768948,32.5252802 20.4336585,32.5513747 21.1114452,32.5528244 C23.8331259,32.5858048 26.5686093,32.4169158 29.2826622,32.0041161 C29.9662606,31.8990134 30.6476797,31.7768769 31.3276458,31.6377065 C31.2310267,31.7888369 31.1362237,31.9410545 31.0392414,32.0918224 C29.8678254,33.9256823 28.6393823,35.7207629 27.3535489,37.4632921 C24.863972,40.8755037 22.1324841,44.1133898 19.086076,46.8333736 C18.4754868,46.5264015 17.8423773,46.2592958 17.2041826,46.0480032 C15.9753762,45.6569489 14.7483861,45.4047026 13.5399206,45.2637201 C12.3329081,45.1154891 11.1411512,45.0444542 9.96719258,45.0444542 C8.78015768,45.0169101 7.53682217,45.0814214 6.28513238,45.3075733 C5.03380581,45.5511214 3.73671229,45.8907117 2.44434076,46.75654 C1.81123127,47.1997832 1.1443414,47.7988682 0.702654001,48.747329 C0.490164584,49.219566 0.348141743,49.77661 0.35322696,50.3459763 C0.356496027,50.913893 0.493070422,51.4752861 0.712824434,51.9406371 C1.15923382,52.8836614 1.8214017,53.4907198 2.45414796,53.943386 C3.09706466,54.3964146 3.74869887,54.700125 4.39270526,54.9411362 C5.68180772,55.4126484 6.94838994,55.6264779 8.19027253,55.7373793 C8.50047076,55.7641986 8.80957929,55.783407 9.11796137,55.7979039 L9.57853672,55.8127633 L10.0812467,55.8095015 C10.4201401,55.8127633 10.750316,55.7728968 11.0852138,55.7522386 C11.4124838,55.7065734 11.7481082,55.6783044 12.06884,55.611981 C13.3688394,55.3836546 14.5990986,54.979553 15.7483576,54.4732483 C16.9019754,53.9705677 17.9774988,53.3620597 18.9934524,52.7006379 C19.190323,52.5734274 19.3824715,52.4422304 19.5746201,52.3103084 C19.9313117,52.6303278 20.3134294,52.968106 20.7471258,53.3171192 C21.7412857,54.1343828 23.0721595,54.8816989 24.433908,55.2564441 C25.1142373,55.4630252 25.793477,55.5637787 26.457461,55.6424245 C26.7850943,55.6674317 27.1210818,55.7087479 27.440724,55.7120097 C27.7639985,55.7221575 28.0705644,55.7391914 28.4657584,55.7210703 C29.9575431,55.6456863 31.3301884,55.2339739 32.5491875,54.678742 C34.9929974,53.5505196 36.9104874,51.901133 38.5620932,50.1256232 C39.7276975,48.8705527 40.7516423,47.5277759 41.6720665,46.1328102 C41.6880486,46.6427392 41.7203761,47.1577421 41.7719547,47.6796311 C41.8823765,48.7208721 42.0647179,49.792919 42.4599119,50.9051949 C42.853653,52.0029738 43.4740494,53.2007815 44.5888016,54.1709876 C45.1387315,54.6497482 45.8012626,55.0411649 46.4910359,55.2944985 C47.1818989,55.5481946 47.8843853,55.665982 48.5458267,55.6986001 L48.7953656,55.71056 C48.8157064,55.6946134 48.8360473,55.7359296 48.8647425,55.7301309 L48.9439266,55.7265066 L49.102658,55.7188957 C49.3155106,55.7087479 49.5134708,55.6764923 49.712884,55.6449615 C50.1055354,55.5735642 50.4644064,55.4651997 50.7993042,55.3405262 C51.4618353,55.0853805 52.0143078,54.7624617 52.5097532,54.4235963 C53.4944691,53.741154 54.2612472,52.9873144 54.9640968,52.2197027 C55.5590672,51.5648045 56.0959208,50.8939598 56.6011734,50.2140544 C56.8790442,50.7924813 57.1986864,51.3669216 57.5898848,51.9257777 C58.2680348,52.8970711 59.1666653,53.8317597 60.2926776,54.5138396 C61.4121517,55.2028055 62.7186892,55.593135 63.9580292,55.6938886 C64.2671377,55.7217951 64.5795153,55.7297684 64.8744579,55.7304933 C65.155961,55.7290436 65.4378273,55.7217951 65.7211465,55.7033116 C66.2870585,55.6663444 66.8558763,55.5942223 67.4203354,55.4815087 C68.5507064,55.2597059 69.6607366,54.8639401 70.6875872,54.3213931 C71.7151642,53.7777587 72.6562926,53.0884304 73.4822771,52.3026975 C73.7191029,52.0761832 73.9439421,51.8402459 74.16188,51.5999596 C74.5599798,51.6941895 74.9529944,51.7663117 75.3463723,51.8130642 C76.299124,51.9236032 77.2595035,51.9156299 78.2260579,51.7688486 C79.1904329,51.6253292 80.1631623,51.3343036 81.0752322,50.8580799 C81.685095,50.542772 82.2571819,50.1335965 82.771152,49.663534 C82.8830268,49.9230288 83.00035,50.1821612 83.1292966,50.4412936 C83.5691679,51.3067594 84.1132861,52.1704132 84.837203,52.9590454 C85.5560347,53.7458655 86.4615665,54.450778 87.4895068,54.9324381 C88.517447,55.4151854 89.6332889,55.6609081 90.6931934,55.7170836 C91.2391277,55.7395538 91.7000663,55.7304933 92.1922427,55.6982376 C92.6793338,55.6609081 93.1686043,55.6043701 93.6553322,55.5119523 C95.6036967,55.156053 97.4979399,54.2909495 99.0398503,53.0492887 C99.7056505,52.5212385 100.303527,51.929402 100.84256,51.2962492 C101.316211,51.3165448 101.790589,51.3248806 102.26642,51.3150952 C103.343397,51.2846516 104.419646,51.1596157 105.476645,50.9479608 C106.568151,50.733044 107.630598,50.4086755 108.657085,50.0031243 C109.003969,50.9033827 109.479074,51.7960303 110.119811,52.6379387 C110.921096,53.6668573 112.036575,54.6033581 113.362,55.1393815 C114.670717,55.6790292 116.127995,55.8189245 117.34881,55.6783044 C118.611397,55.5481946 119.838387,55.1785232 120.936067,54.6421373 C123.135061,53.5454456 124.786303,51.8909851 126.092114,50.1611407 C127.149476,48.7524029 127.995438,47.2628448 128.71427,45.7421183 C128.940925,46.9529732 129.241679,48.1862983 129.741484,49.4120125 C130.260539,50.7207216 131.012788,52.0384913 132.127177,53.2174529 C133.256821,54.3703202 134.840866,55.3129821 136.506638,55.6011083 C137.328264,55.7536883 138.151343,55.7725343 138.912672,55.7232448 C139.624966,55.6877274 140.343071,55.5757387 141.049916,55.4017757 C142.460337,55.0371783 143.845332,54.3598099 144.945555,53.3359652 C145.4904,52.8249489 145.972406,52.2476093 146.328734,51.604671 C146.685789,50.9642698 146.934965,50.2792905 147.04466,49.5845258 C147.084252,49.3297425 147.020687,49.0561133 146.84561,48.8390219 Z" id="Fill-3"></path></g></g><g id="Group-8" fill="#1BAAA0"><polyline id="Fill-6" points="51.4906836 39.2614194 56.6954652 31.7227355 25.0651133 39.2614194 8.35479388 55.7651613 43.8638568 55.7651613 60.5734445 39.2614194 51.4906836 39.2614194"></polyline><polyline id="Fill-4" points="39.6862769 10.3809548 8.35479388 55.7651613 0 43.3873548 33.4199071 10.3809548 39.6862769 10.3809548"></polyline><polyline id="Fill-7" points="22.9163301 9.00552258 40.6143435 9.00552258 31.3311172 0.066116129 18.3908625 4.53563871 22.9163301 9.00552258"></polyline><polyline id="Fill-8" points="18.0243182 6.1188129 11.6778355 9.00552258 20.9471609 9.00552258 18.0243182 6.1188129"></polyline></g></g></g></svg> 