<?xml version="1.0" encoding="iso-8859-1"?>
<!-- Generator: Adobe Illustrator 19.0.0, SVG Export Plug-In . SVG Version: 6.00 Build 0)  -->
<svg version="1.1" id="Capa_1" xmlns="http://www.w3.org/2000/svg" xmlns:xlink="http://www.w3.org/1999/xlink" x="0px" y="0px"
	 viewBox="0 0 512.002 512.002" style="enable-background:new 0 0 512.002 512.002;" xml:space="preserve">
<g>
	<g transform="translate(1 1)">
		<g>
			<path style="fill:#795548;" d="M237.934,383.002h34.133v102.4c0,9.426-7.641,17.067-17.067,17.067s-17.067-7.641-17.067-17.067
				V383.002z"/>
			<path style="fill:#795548;" d="M317.977,383.002l54.187,93.867c3.049,5.274,3.052,11.774,0.009,17.051
				c-3.043,5.277-8.671,8.53-14.763,8.533c-6.092,0.003-11.723-3.244-14.771-8.518l-64-110.933h-47.275l-64,110.933
				c-4.713,8.153-15.143,10.942-23.296,6.229s-10.942-15.143-6.229-23.296l54.187-93.867l28.843-341.333
				c0-18.851,15.282-34.133,34.133-34.133s34.133,15.282,34.133,34.133L317.977,383.002z"/>
		</g>
		<path style="fill:#FFB301;" d="M24.601,41.669h460.8c9.426,0,17.067,7.641,17.067,17.067v307.2
			c0,9.426-7.641,17.067-17.067,17.067h-460.8c-9.426,0-17.067-7.641-17.067-17.067v-307.2C7.534,49.31,15.175,41.669,24.601,41.669
			z"/>
		<path style="fill:#FEC108;" d="M24.601,41.669h435.2c9.426,0,17.067,7.641,17.067,17.067v307.2
			c0,9.426-7.641,17.067-17.067,17.067h-435.2c-9.426,0-17.067-7.641-17.067-17.067v-307.2C7.534,49.31,15.175,41.669,24.601,41.669
			z"/>
		<path style="fill:#E91E63;" d="M417.134,92.869v51.2h-51.2c0,28.277,22.923,51.2,51.2,51.2c28.277,0,51.2-22.923,51.2-51.2
			S445.411,92.869,417.134,92.869z"/>
		<polygon style="fill:#F5F5F5;" points="169.668,272.069 152.601,306.202 101.401,306.202 84.334,272.069 		"/>
		<path style="fill:#FEC108;" d="M147.054,306.202c0.862,2.342,1.296,4.819,1.28,7.314c0,12.142-21.333,43.886-21.333,43.886
			s-21.333-31.744-21.333-43.886c-0.016-2.495,0.418-4.973,1.28-7.314H147.054z"/>
		<polygon style="fill:#F44335;" points="169.668,272.069 211.396,313.882 211.481,313.882 212.334,313.626 212.334,220.869 
			169.668,169.669 84.334,169.669 41.668,220.869 41.668,313.626 42.521,313.882 42.606,313.882 84.334,272.069 		"/>
		<path style="fill:#C52828;" d="M169.668,84.336H84.334c0-1.195,0-2.389,0.085-3.584c1.877-27.051,23.381-53.333,35.072-65.792
			c4.523-4.693,7.509-7.424,7.509-7.424S169.668,45.765,169.668,84.336z"/>
		<path style="fill:#F44335;" d="M144.068,84.336H84.334c0-1.195,0-2.389,0.085-3.584c1.877-27.051,23.381-53.333,35.072-65.792
			C128.025,27.93,144.068,56.005,144.068,84.336z"/>
		<rect x="84.334" y="84.336" style="fill:#CFD8DC;" width="85.333" height="187.733"/>
		<rect x="84.334" y="84.336" style="fill:#F5F5F5;" width="59.733" height="187.733"/>
		<rect x="144.068" y="229.402" style="fill:#283593;" width="25.6" height="42.667"/>
		<rect x="84.334" y="229.402" style="fill:#3F51B5;" width="59.733" height="42.667"/>
	</g>
	<g>
		<path d="M460.801,238.936h-204.8c-4.713,0-8.533,3.821-8.533,8.533s3.821,8.533,8.533,8.533h204.8c4.713,0,8.533-3.82,8.533-8.533
			S465.514,238.936,460.801,238.936z"/>
		<path d="M460.801,273.069h-204.8c-4.713,0-8.533,3.82-8.533,8.533s3.821,8.533,8.533,8.533h204.8c4.713,0,8.533-3.82,8.533-8.533
			S465.514,273.069,460.801,273.069z"/>
		<path d="M460.801,307.202h-204.8c-4.713,0-8.533,3.82-8.533,8.533s3.821,8.533,8.533,8.533h204.8c4.713,0,8.533-3.821,8.533-8.533
			S465.514,307.202,460.801,307.202z"/>
		<path d="M418.134,85.336c-4.713,0-8.533,3.821-8.533,8.533v42.667h-42.667c-4.713,0-8.533,3.82-8.533,8.533
			c0,32.99,26.744,59.733,59.733,59.733s59.733-26.744,59.733-59.733S451.124,85.336,418.134,85.336z M418.134,187.736
			c-20.266-0.026-37.727-14.282-41.808-34.133h41.808c4.713,0,8.533-3.821,8.533-8.533v-41.808
			c21.461,4.382,36.118,24.302,33.917,46.095C458.383,171.148,440.038,187.734,418.134,187.736z"/>
		<path d="M256.001,204.802h93.867c4.713,0,8.533-3.821,8.533-8.533c0-4.713-3.821-8.533-8.533-8.533h-44.809
			c27.467-20.023,44.418-51.385,46.121-85.333c0-4.713-3.82-8.533-8.533-8.533s-8.533,3.821-8.533,8.533
			c0,32.164-28.742,78.868-69.579,84.713v-84.713c0-4.713-3.82-8.533-8.533-8.533c-4.713,0-8.533,3.821-8.533,8.533v93.867
			c0,2.263,0.899,4.434,2.499,6.034C251.567,203.903,253.738,204.802,256.001,204.802z"/>
		<path d="M486.401,34.136H297.805c-4.055-19.865-21.529-34.133-41.804-34.133c-20.275,0-37.749,14.268-41.804,34.133h-53.265
			c-7.83-11.655-16.968-22.376-27.235-31.954c-3.24-2.909-8.152-2.909-11.392,0C112.038,11.759,102.9,22.48,95.07,34.136H25.601
			c-14.132,0.015-25.585,11.468-25.6,25.6v307.2c0.015,14.132,11.468,25.585,25.6,25.6h152.644l-46.811,81.092
			c-3.392,5.87-4.312,12.847-2.558,19.396c1.729,6.579,6.037,12.183,11.95,15.546c5.87,3.393,12.848,4.314,19.396,2.558
			c6.572-1.725,12.171-6.026,15.533-11.93l54.645-94.719v81.923c0,14.138,11.462,25.6,25.6,25.6c14.139,0,25.6-11.462,25.6-25.6
			v-81.923l54.633,94.698c3.363,5.913,8.967,10.221,15.546,11.95c6.549,1.755,13.527,0.835,19.396-2.558
			c5.913-3.362,10.221-8.967,11.95-15.546c1.754-6.558,0.829-13.545-2.571-19.421l-46.798-81.067h152.644
			c14.132-0.015,25.585-11.468,25.6-25.6v-307.2C511.986,45.603,500.533,34.151,486.401,34.136z M256.001,17.069
			c10.813,0.033,20.435,6.868,24.028,17.067h-48.055C235.566,23.937,245.188,17.102,256.001,17.069z M128.001,20.506
			c9.819,10.209,29.22,32.912,33.319,56.296H94.682C98.781,53.418,118.182,30.716,128.001,20.506z M93.868,238.936h68.267v25.6
			H93.868V238.936z M162.134,221.869H93.868v-128h68.267V221.869z M76.801,269.536l-25.6,25.6v-70.179l25.6-30.72V269.536z
			 M140.636,315.736c-2.974,9.432-7.225,18.413-12.634,26.692c-5.412-8.278-9.664-17.259-12.635-26.692H140.636z M148.326,298.669
			h-40.65l-8.533-17.067h57.717L148.326,298.669z M179.201,194.237l25.6,30.72v70.179l-25.6-25.6V194.237z M160.959,490.694
			c-2.378,4.054-7.584,5.425-11.65,3.067c-1.951-1.108-3.372-2.955-3.942-5.125c-0.584-2.195-0.274-4.533,0.862-6.5l51.724-89.6
			h19.635L160.959,490.694z M264.534,486.402c0,4.713-3.821,8.533-8.533,8.533c-4.713,0-8.533-3.82-8.533-8.533v-93.867h17.067
			V486.402z M365.759,482.111c1.144,1.973,1.459,4.32,0.875,6.525c-0.57,2.17-1.991,4.017-3.942,5.125
			c-1.956,1.138-4.284,1.452-6.471,0.873c-2.187-0.579-4.055-2.004-5.191-3.961l-56.618-98.138h19.635L365.759,482.111z
			 M494.934,366.936c-0.006,4.71-3.823,8.527-8.533,8.533h-460.8c-4.71-0.006-8.527-3.823-8.533-8.533v-307.2
			c0.006-4.71,3.823-8.527,8.533-8.533h59.791c-5.34,10.607-8.273,22.262-8.591,34.133v82.246l-40.688,48.825
			c-1.279,1.533-1.979,3.466-1.979,5.463v93.867c0,3.451,2.079,6.563,5.267,7.883c3.189,1.321,6.859,0.59,9.299-1.85l34.295-34.295
			l11.771,23.546c0.752,1.486,1.925,2.718,3.373,3.543c0.036,13.693,17.437,40.653,22.777,48.599
			c1.585,2.359,4.241,3.775,7.083,3.775s5.498-1.415,7.083-3.775c5.34-7.946,22.741-34.906,22.777-48.599
			c1.448-0.824,2.621-2.056,3.373-3.543l11.772-23.544l34.295,34.294c2.44,2.441,6.11,3.171,9.299,1.85
			c3.189-1.321,5.268-4.432,5.268-7.883v-93.867c0-1.996-0.7-3.929-1.979-5.463l-40.688-48.825V85.336
			c-0.318-11.871-3.251-23.526-8.591-34.133h315.791c4.71,0.006,8.527,3.823,8.533,8.533V366.936z"/>
		<path d="M119.468,128.002h17.067c4.713,0,8.533-3.821,8.533-8.533c0-4.713-3.82-8.533-8.533-8.533h-17.067
			c-4.713,0-8.533,3.821-8.533,8.533C110.934,124.182,114.755,128.002,119.468,128.002z"/>
		<path d="M119.468,162.136h17.067c4.713,0,8.533-3.82,8.533-8.533s-3.82-8.533-8.533-8.533h-17.067
			c-4.713,0-8.533,3.821-8.533,8.533S114.755,162.136,119.468,162.136z"/>
	</g>
</g>
<g>
</g>
<g>
</g>
<g>
</g>
<g>
</g>
<g>
</g>
<g>
</g>
<g>
</g>
<g>
</g>
<g>
</g>
<g>
</g>
<g>
</g>
<g>
</g>
<g>
</g>
<g>
</g>
<g>
</g>
</svg>
